<svg width="64" height="64" viewBox="0 0 64 64" fill="none" xmlns="http://www.w3.org/2000/svg">
<path d="M31.9998 6.40002C21.4078 6.40002 12.7998 15.008 12.7998 25.6C12.7998 32.064 16.5438 37.472 20.8958 41.248C22.2718 42.432 24.6718 44.32 26.8158 47.104C29.1838 50.208 31.3278 53.536 31.9998 55.776C32.6718 53.536 34.8158 50.208 37.1838 47.104C39.3278 44.32 41.7278 42.432 43.1038 41.248C47.4558 37.472 51.1998 32.064 51.1998 25.6C51.1998 15.008 42.5918 6.40002 31.9998 6.40002ZM31.9998 14.592C33.4454 14.592 34.8768 14.8768 36.2124 15.43C37.5479 15.9832 38.7615 16.794 39.7836 17.8162C40.8058 18.8384 41.6167 20.0519 42.1699 21.3874C42.7231 22.723 43.0078 24.1544 43.0078 25.6C43.0078 27.0456 42.7231 28.4771 42.1699 29.8126C41.6167 31.1482 40.8058 32.3617 39.7836 33.3839C38.7615 34.406 37.5479 35.2169 36.2124 35.7701C34.8768 36.3233 33.4454 36.608 31.9998 36.608C29.0803 36.608 26.2804 35.4483 24.216 33.3839C22.1516 31.3195 20.9918 28.5195 20.9918 25.6C20.9918 22.6805 22.1516 19.8806 24.216 17.8162C26.2804 15.7518 29.0803 14.592 31.9998 14.592Z" fill="#000068"/>
</svg>
