<svg width="30" height="30" viewBox="0 0 30 30" fill="none" xmlns="http://www.w3.org/2000/svg">
<path d="M8.75 8.91492V7.11204C8.75 4.96614 8.75 3.8932 9.4396 3.29511C10.1292 2.69703 11.1914 2.84877 13.3157 3.15224L21.0985 4.26408C23.5547 4.61495 24.7827 4.79039 25.5164 5.63628C26.25 6.48217 26.25 7.72271 26.25 10.2038V19.7962C26.25 22.2773 26.25 23.5178 25.5164 24.3637C24.7827 25.2096 23.5547 25.385 21.0985 25.7359L13.3157 26.8478C11.1914 27.1512 10.1292 27.303 9.4396 26.7049C8.75 26.1068 8.75 25.0339 8.75 22.888V21.3325" stroke="#006AFF"/>
<path d="M20 15L20.3904 14.6877L20.6403 15L20.3904 15.3123L20 15ZM5 15.5C4.72386 15.5 4.5 15.2761 4.5 15C4.5 14.7239 4.72386 14.5 5 14.5V15.5ZM15.3904 8.43765L20.3904 14.6877L19.6096 15.3123L14.6096 9.06235L15.3904 8.43765ZM20.3904 15.3123L15.3904 21.5623L14.6096 20.9377L19.6096 14.6877L20.3904 15.3123ZM20 15.5H5V14.5H20V15.5Z" fill="#006AFF"/>
</svg>
